Coordinates
version=1
nRows=10
nColumns=63
inDegrees=yes

Units are S.I. units (second, meters, Newtons, ...)
If the header above contains a line with 'inDegrees', this indicates whether rotational values are in degrees (yes) or radians (no).

endheader
time	pelvis_tilt	pelvis_list	pelvis_rotation	pelvis_tx	pelvis_ty	pelvis_tz	hip_flexion_r	hip_adduction_r	hip_rotation_r	knee_angle_r	knee_angle_r_beta	ankle_angle_r	subtalar_angle_r	mtp_angle_r	hip_flexion_l	hip_adduction_l	hip_rotation_l	knee_angle_l	knee_angle_l_beta	ankle_angle_l	subtalar_angle_l	mtp_angle_l	L5_S1_Flex_Ext	L5_S1_Lat_Bending	L5_S1_axial_rotation	L4_L5_Flex_Ext	L4_L5_Lat_Bending	L4_L5_axial_rotation	L3_L4_Flex_Ext	L3_L4_Lat_Bending	L3_L4_axial_rotation	L2_L3_Flex_Ext	L2_L3_Lat_Bending	L2_L3_axial_rotation	L1_L2_Flex_Ext	L1_L2_Lat_Bending	L1_L2_axial_rotation	L1_T12_Flex_Ext	L1_T12_Lat_Bending	L1_T12_axial_rotation	Abs_r3	Abs_r2	Abs_r1	Abs_t1	Abs_t2	neck_flexion	neck_bending	neck_rotation	arm_flex_r	arm_add_r	arm_rot_r	elbow_flex_r	pro_sup_r	wrist_flex_r	wrist_dev_r	arm_flex_l	arm_add_l	arm_rot_l	elbow_flex_l	pro_sup_l	wrist_flex_l	wrist_dev_l
      4.28813559	      0.53890276	     -5.05894608	     87.49368490	      0.15638482	      0.95148629	      0.58283771	      7.50187807	      0.41498305	     -6.58918433	     15.96321377	      0.27861064	     26.53857220	      6.53615127	      0.00000000	      4.97398137	     -1.58396056	     -5.80369600	      9.60898636	      0.16770845	     22.76732970	      5.72750576	      0.00000000	      0.19318876	      0.00690129	      0.55087426	      0.35877086	      0.00917871	      0.58530390	      0.31738982	      0.01677979	      0.58530390	      0.22079544	      0.01677979	      0.48201498	      0.17939509	      0.01407311	      0.44758534	      0.11038806	      0.01069010	      0.41315569	      1.37992803	      0.07806876	      3.06379737	      0.00000000	      0.00000000	     27.07844979	      4.35160340	     -2.04771392	     15.88070057	    -22.69127277	     -8.20794569	    121.29233358	     88.73485931	     12.91241333	      2.36715811	      0.17378117	    -14.65168947	     14.76301812	     28.63579525	     79.09897747	     -7.42810798	      6.85826863
      4.30508475	      0.49731138	     -4.97238273	     87.25857211	      0.15693055	      0.95161223	      0.58236839	      7.38190594	      0.43257246	     -6.28019625	     15.90574757	      0.27760767	     26.56233127	      6.42671054	      0.00000000	      4.77595443	     -1.55123463	     -5.81188879	      9.51112630	      0.16600047	     22.71162448	      5.49284851	      0.00000000	      0.18845516	      0.00044792	      0.56418580	      0.34998007	      0.00059573	      0.59944741	      0.30961298	      0.00108906	      0.59944741	      0.21538540	      0.00108906	      0.49366258	      0.17499946	      0.00091339	      0.45840096	      0.10768328	      0.00069382	      0.42313935	      1.34611634	      0.00506692	      3.13783217	      0.00000000	      0.00000000	     27.02819370	      4.44934069	     -1.99141169	     15.45394512	    -22.53357096	     -8.14871690	    121.43472504	     88.74942830	     13.00463039	      2.60085680	      0.07140799	    -14.75137001	     14.61668729	     28.45025615	     77.55112923	     -7.11921512	      7.08217071
      4.32203390	      0.41479275	     -4.91646963	     86.96096207	      0.15765221	      0.95168589	      0.58200570	      7.31200416	      0.42013102	     -5.94017905	     15.83646289	      0.27639842	     26.66407023	      6.41753138	      0.00000000	      4.61130167	     -1.48831164	     -5.93480696	      9.40874454	      0.16421357	     22.67447248	      5.27768141	      0.00000000	      0.18571662	     -0.01184696	      0.59349598	      0.34489434	     -0.01575646	      0.63058948	      0.30511384	     -0.02880471	      0.63058948	      0.21225553	     -0.02880471	      0.51930898	      0.17245646	     -0.02415833	      0.48221549	      0.10611848	     -0.01835095	      0.44512199	      1.32655527	     -0.13401523	      3.30084660	      0.00000000	      0.00000000	     27.02306409	      4.44452147	     -2.08421387	     15.05687245	    -22.26771073	     -8.20818615	    121.58173962	     88.71382141	     13.19999909	      2.87105137	     -0.01359029	    -14.84136852	     14.36481646	     28.26423061	     76.08608863	     -6.77999146	      7.16777279
      4.33898305	      0.28216704	     -4.92693870	     86.41937917	      0.15863136	      0.95176358	      0.58170051	      7.37837587	      0.30779512	     -5.87720297	     15.84682802	      0.27657933	     26.90362335	      7.16189979	      0.00000000	      4.49795787	     -1.40540397	     -6.50881115	      9.31565302	      0.16258882	     22.60197294	      5.33142437	      0.00000000	      0.19274325	     -0.03085579	      0.72542372	      0.35794349	     -0.04103820	      0.77076270	      0.31665788	     -0.07502277	      0.77076270	      0.22028626	     -0.07502277	      0.63474576	      0.17898138	     -0.06292113	      0.58940677	      0.11013349	     -0.04779562	      0.54406779	      1.37674575	     -0.34904687	      4.03458911	      0.00000000	      0.00000000	     27.01760544	      3.96688440	     -2.99726756	     14.40475777	    -21.94719753	     -8.88971381	    121.91858415	     88.69168678	     14.10880423	      3.27403824	      0.14540137	    -14.81909723	     13.96554043	     27.84287586	     75.37059192	     -5.80655854	      7.12557334
      4.35593220	      0.21096699	     -4.94184538	     86.29344550	      0.15917177	      0.95182359	      0.58137805	      7.37867505	      0.26469386	     -5.97102437	     15.76422198	      0.27513758	     27.10908646	      7.51418487	      0.00000000	      4.45580468	     -1.36918613	     -6.72637600	      9.26955607	      0.16178427	     22.58416646	      5.48850188	      0.00000000	      0.19656097	     -0.03996825	      0.73792398	      0.36503338	     -0.05315777	      0.78404423	      0.32293002	     -0.09717881	      0.78404423	      0.22464954	     -0.09717881	      0.64568348	      0.18252652	     -0.08150326	      0.59956323	      0.11231494	     -0.06191082	      0.55344298	      1.40401537	     -0.45212886	      4.10411180	      0.00000000	      0.00000000	     27.05071698	      3.77277750	     -3.22845452	     14.10704767	    -21.60170161	     -9.13088925	    122.06771364	     88.69321832	     14.81806384	      3.46949322	      0.01116510	    -14.82300614	     13.50371086	     27.85289045	     74.30013996	     -5.80141369	      7.19829048
      4.37288136	      0.24937432	     -4.92786258	     86.37475067	      0.15935997	      0.95188929	      0.58109077	      7.26903418	      0.46171672	     -5.22078959	     15.50979301	      0.27069695	     27.03229006	      6.39620839	      0.00000000	      4.35597018	     -1.35892607	     -6.23495649	      9.10228469	      0.15886484	     22.36218820	      4.75155840	      0.00000000	      0.18781270	     -0.02877656	      0.62514234	      0.34878697	     -0.03827282	      0.66421373	      0.30855749	     -0.06996732	      0.66421373	      0.21465114	     -0.06996732	      0.54699955	      0.17440288	     -0.05868115	      0.50792815	      0.10731618	     -0.04457488	      0.46885675	      1.34152736	     -0.32552615	      3.47685414	      0.00000000	      0.00000000	     27.29329400	      3.72853193	     -2.63546286	     14.35624003	    -21.42314385	     -8.47536919	    122.11969322	     88.43604255	     14.81936475	      4.18986988	     -0.49953742	    -15.00746231	     13.56149551	     28.28852166	     70.59806623	     -6.10213545	      7.16301241
      4.38983051	      0.12498625	     -5.02778765	     86.21269375	      0.15984815	      0.95182932	      0.58089437	      7.50404810	      0.29574250	     -5.54844190	     15.69815759	      0.27398454	     27.44410016	      7.25010876	      0.00000000	      4.47253330	     -1.28746107	     -6.50134687	      9.18194245	      0.16025513	     22.44092844	      5.02505523	      0.00000000	      0.20694068	     -0.04404965	      0.71530722	      0.38430954	     -0.05858603	      0.76001392	      0.33998284	     -0.10710232	      0.76001392	      0.23651250	     -0.10710232	      0.62589382	      0.19216512	     -0.08982605	      0.58118711	      0.11824590	     -0.06823291	      0.53648041	      1.47815658	     -0.49829845	      3.97832415	      0.00000000	      0.00000000	     27.17231211	      3.56523614	     -3.03371786	     13.71491032	    -21.02446624	     -9.32589280	    122.26531592	     88.83586748	     16.33926218	      3.29007456	     -0.28888744	    -15.00801464	     13.77164215	     28.13305175	     70.65261201	     -6.36950478	      7.15530728
      4.40677966	      0.16041647	     -4.99521417	     86.17201272	      0.16004299	      0.95177331	      0.58069296	      7.46110534	      0.36852475	     -5.55409849	     15.63154308	      0.27282189	     27.54343506	      7.24731290	      0.00000000	      4.37527374	     -1.32708158	     -6.57842506	      9.09748935	      0.15878114	     22.45853152	      5.08035473	      0.00000000	      0.19763503	     -0.03307592	      0.68297672	      0.36702802	     -0.04399098	      0.72566276	      0.32469459	     -0.08042080	      0.72566276	      0.22587708	     -0.08042080	      0.59760463	      0.18352389	     -0.06744842	      0.55491858	      0.11292866	     -0.05123460	      0.51223254	      1.41168727	     -0.37416145	      3.79851162	      0.00000000	      0.00000000	     27.29048351	      3.32229621	     -2.78086415	     13.69187853	    -20.96516165	     -9.01463493	    122.33624832	     88.79626493	     16.58153541	      3.34235768	     -0.53872184	    -15.09412655	     13.67131603	     28.41142683	     70.14412949	     -6.35159470	      7.13370252
      4.42372881	      0.18039333	     -4.97734246	     86.09232374	      0.16024817	      0.95161235	      0.58065408	      7.50354715	      0.40025841	     -5.55430219	     15.72803260	      0.27450595	     27.55641340	      7.32598875	      0.00000000	      4.34342176	     -1.36363419	     -6.69697502	      9.09902889	      0.15880801	     22.53540908	      5.16123302	      0.00000000	      0.19112001	     -0.02428358	      0.64871134	      0.35492897	     -0.03229716	      0.68925580	      0.31399106	     -0.05904310	      0.68925580	      0.21843106	     -0.05904310	      0.56762243	      0.17747404	     -0.04951908	      0.52707797	      0.10920597	     -0.03761527	      0.48653351	      1.36515112	     -0.27470074	      3.60793788	      0.00000000	      0.00000000	     27.29672142	      3.28065886	     -2.34439029	     13.67375836	    -20.88780823	     -8.65037991	    122.30358146	     88.80098136	     16.94223276	      2.99948138	     -0.79079652	    -15.14531497	     13.48787000	     28.61381513	     69.79604489	     -6.41912534	      6.98468733
      4.44067797	      0.20462721	     -4.94102614	     85.96573593	      0.16023820	      0.95132535	      0.58072429	      7.50872396	      0.43360593	     -5.50473188	     15.81012520	      0.27593874	     27.48488112	      7.24664198	      0.00000000	      4.28120964	     -1.38418169	     -6.83789868	      9.08699447	      0.15859797	     22.68717604	      5.20541562	      0.00000000	      0.18299886	     -0.01274975	      0.60374600	      0.33984719	     -0.01695717	      0.64148012	      0.30064883	     -0.03099974	      0.64148012	      0.20914940	     -0.03099974	      0.52827775	      0.16993275	     -0.02599929	      0.49054362	      0.10456555	     -0.01974936	      0.45280950	      1.30714259	     -0.14422773	      3.35785412	      0.00000000	      0.00000000	     27.29551959	      3.34514542	     -1.78220717	     13.76014636	    -20.78131568	     -8.17305401	    122.19139738	     88.80897727	     17.15767372	      2.70040809	     -1.09273290	    -15.16122783	     13.26814952	     28.76975280	     69.47160880	     -6.51902994	      6.75595841
